<svg width="512" height="512" viewBox="0 0 512 512" fill="none" xmlns="http://www.w3.org/2000/svg">
  <rect width="512" height="512" rx="120" fill="#0D1014"/>
  <rect x="36" y="36" width="440" height="440" rx="104" fill="#11161D" stroke="#27303A" stroke-width="10"/>

  <path d="M176 162C202 141 233 130 269 130C311 130 347 145 376 176C401 203 414 237 414 278C414 323 398 360 366 389C334 417 294 432 246 432C202 432 165 418 136 389C108 361 94 325 94 282C94 243 106 209 130 182C150 160 174 146 202 139" stroke="#EAF0F6" stroke-width="22" stroke-linecap="round"/>

  <path d="M166 315C188 333 214 342 244 342C285 342 319 326 346 293" stroke="#86D6A4" stroke-width="26" stroke-linecap="round"/>
  <path d="M176 289C190 303 209 310 231 310C259 310 282 299 299 278C315 259 323 236 323 208" stroke="#88B2F7" stroke-width="22" stroke-linecap="round"/>

  <circle cx="328" cy="196" r="20" fill="#EAF0F6"/>
  <circle cx="281" cy="246" r="24" fill="#88B2F7"/>
  <circle cx="214" cy="312" r="30" fill="#86D6A4"/>
</svg>
